# Blender 4.2.2 LTS
# www.blender.org
mtllib sarah_1.mtl
o Circle
v -0.149216 0.018386 0.227363
v -0.130564 -0.085302 0.228436
v -0.099478 -0.205980 0.194518
v -0.037304 -0.271541 0.154946
v 0.024869 -0.337873 0.107042
v 0.093260 -0.400330 0.058708
v 0.124347 -0.451802 -0.026025
v 0.080825 -0.461400 -0.103800
v -0.000000 -0.464617 -0.146374
v -0.074608 -0.481185 -0.092586
v -0.111912 -0.493995 0.010551
v -0.124347 -0.523772 0.066388
v -0.118130 -0.598679 0.136879
v -0.161651 -0.725767 0.171659
v -0.236259 -0.745563 0.221548
v -0.310867 -0.657186 0.266610
v -0.006217 1.593794 -0.007850
v -0.049739 1.433538 0.025215
v -0.087043 1.272666 0.059672
v -0.093260 1.113978 0.076488
v -0.093260 1.004706 0.073729
v -0.074608 0.897309 0.057485
v -0.074608 0.897309 0.057485
v -0.062173 0.783708 0.044492
v -0.055956 0.690838 0.051678
v -0.074608 0.564845 0.091909
v -0.093260 0.457215 0.115845
v -0.111912 0.360421 0.150876
v -0.130564 0.267445 0.174054
v -0.142999 0.157676 0.208226
v -0.285998 -0.717977 0.263540
v 0.018652 1.708507 -0.032284
v 0.043521 1.826924 -0.036524
v 0.055956 1.962299 -0.040763
v 0.087043 2.056130 -0.056309
l 1 30
l 2 1
l 3 2
l 4 3
l 5 4
l 6 5
l 7 6
l 8 7
l 9 8
l 10 9
l 11 10
l 12 11
l 13 12
l 14 13
l 15 14
l 31 15
l 32 33
l 17 32
l 18 17
l 19 18
l 20 19
l 21 20
l 22 21
l 23 22
l 24 23
l 25 24
l 26 25
l 27 26
l 28 27
l 29 28
l 30 29
l 16 31
l 33 34
l 34 35
